<?xml version="1.0" standalone="no"?>
<!DOCTYPE svg PUBLIC "-//W3C//DTD SVG 20010904//EN"
 "http://www.w3.org/TR/2001/REC-SVG-20010904/DTD/svg10.dtd">
<svg version="1.0" xmlns="http://www.w3.org/2000/svg"
 width="512.000000pt" height="512.000000pt" viewBox="0 0 512.000000 512.000000"
 preserveAspectRatio="xMidYMid meet">

<g transform="translate(0.000000,512.000000) scale(0.100000,-0.100000)"
fill="#000000" stroke="none">
<path d="M2853 4911 c-224 -77 -286 -368 -112 -526 60 -54 115 -78 194 -83 92
-5 165 21 234 86 70 65 95 126 95 227 1 73 -2 86 -35 145 -77 140 -230 202
-376 151z"/>
<path d="M2155 4597 c-47 -22 -94 -66 -118 -111 -28 -53 -30 -165 -4 -213 92
-171 330 -172 420 -2 26 48 28 61 24 122 -5 81 -36 132 -105 182 -37 25 -54
30 -115 32 -45 2 -83 -2 -102 -10z"/>
<path d="M2075 3966 c-80 -35 -145 -130 -145 -212 0 -62 27 -127 71 -172 38
-38 109 -72 151 -72 17 0 18 -15 18 -242 l0 -243 -83 -29 c-344 -121 -642
-389 -802 -720 -24 -50 -55 -125 -69 -166 -30 -92 -66 -264 -66 -319 0 -23 -4
-41 -10 -41 -6 0 -10 -43 -10 -110 0 -60 4 -110 9 -110 4 0 11 -33 14 -72 4
-40 18 -119 31 -174 128 -523 543 -926 1077 -1046 88 -19 132 -23 284 -23 259
0 402 33 620 140 147 71 242 136 348 235 529 496 614 1255 209 1870 -73 111
-260 297 -375 373 -91 61 -281 156 -354 178 l-43 12 0 244 c0 218 2 243 16
243 78 0 183 80 210 162 33 100 -5 210 -95 273 l-43 30 -466 2 c-370 2 -473 0
-497 -11z m914 -151 c48 -24 56 -81 16 -120 -22 -23 -32 -25 -115 -25 l-90 0
0 -385 0 -384 58 -16 c223 -62 395 -155 550 -300 189 -175 319 -401 373 -644
22 -103 24 -131 5 -131 -7 0 -65 -31 -127 -69 -144 -87 -230 -115 -354 -115
-111 1 -204 27 -295 84 -182 113 -280 145 -450 144 -143 0 -244 -26 -357 -91
-211 -124 -255 -138 -403 -136 -125 1 -186 22 -334 111 -65 40 -125 72 -132
72 -18 0 -18 31 1 120 95 450 444 822 885 942 41 11 83 24 93 30 16 8 17 34
15 386 l-3 377 -98 5 c-89 4 -101 7 -118 29 -33 41 -22 93 26 119 14 8 151 11
423 12 335 0 408 -2 431 -15z"/>
</g>
</svg>
