<?xml version="1.0" encoding="utf-8"?>
<!-- Generator: Adobe Illustrator 16.0.0, SVG Export Plug-In . SVG Version: 6.00 Build 0)  -->
<!DOCTYPE svg PUBLIC "-//W3C//DTD SVG 1.1//EN" "http://www.w3.org/Graphics/SVG/1.1/DTD/svg11.dtd">
<svg version="1.1" id="Layer_1" xmlns="http://www.w3.org/2000/svg" xmlns:xlink="http://www.w3.org/1999/xlink" x="0px" y="0px"
	 width="424.832px" height="311.15px" viewBox="163.368 220.194 424.832 311.15"
	 enable-background="new 163.368 220.194 424.832 311.15" xml:space="preserve">
<g>
	<path d="M357.06,334.33v26.047c0,3.789,2.84,7.578,6.629,7.578h6.629v-40.727h-6.629C359.899,327.697,357.06,330.541,357.06,334.33
		L357.06,334.33z"/>
	<path d="M578.7,390.21c-4.734-23.68-9.945-54.461-16.574-73.406c-6.629-18.941-11.84-27.941-15.629-34.098
		c-1.422-2.367-2.84-4.262-3.789-5.684c-3.316-32.676-29.836-56.828-63.935-56.828h-37.887v13.734
		c-6.156-0.473-10.418-5.211-10.418-10.891v-2.367h-109.87v2.367c0,6.156-4.262,10.891-10.418,10.891v-13.734h-33.625
		c-34.57,0-65.355,24.625-68.195,58.25c-0.945,0.945-1.895,2.367-2.367,3.789c-3.789,6.629-9.473,15.629-15.629,34.098
		c-6.633,19.418-11.84,50.203-17.051,73.879c-5.21,23.68-9.945,61.094-9.945,71.038v13.263c0,27.469,17.996,49.254,39.781,49.254
		c9.945,0,19.418-4.734,26.047-12.312c12.312,12.312,29.363,19.892,46.883,19.892H478.3c17.522,0,33.151-7.578,44.516-19.418
		c7.105,7.105,16.102,11.84,25.574,11.84c22.258,0,39.78-22.258,39.78-49.254V461.25c0.473-9.945-4.738-47.358-9.473-71.039
		L578.7,390.21z M304.02,525.66h-27.465h-2.84h-1.422h-1.895h-1.422h-1.422c-0.473,0-1.422,0-1.895-0.473h-0.945
		c-0.473,0-1.422-0.473-1.895-0.473h-0.945c-0.945,0-1.422-0.473-2.367-0.473h-0.473c-0.945-0.473-1.422-0.473-2.367-0.945h-0.473
		c-0.945-0.473-1.422-0.473-2.367-0.945h-0.473c-0.945-0.473-1.895-0.945-2.367-0.945c-0.945-0.473-1.895-0.945-2.367-1.422
		c-5.211-2.84-9.945-6.629-14.207-10.892c-11.367-11.366-18.941-26.991-18.941-43.569v-36.465l-0.012-144.93
		c0-6.156,0.945-11.84,2.839-17.523c0.473-0.945,0.473-1.895,0.945-2.367c0.473-0.945,0.473-1.422,0.945-2.367
		c0.473-0.945,0.945-1.422,0.945-2.367v-0.473c0.473-0.945,0.945-1.422,0.945-1.895c0,0,0-0.473,0.473-0.473
		c0.473-0.473,0.945-1.422,1.422-1.895l0.473-0.473c0.473-0.473,0.945-0.945,1.422-1.895c0-0.473,0.473-0.473,0.473-0.945
		c0.473-0.473,0.945-0.945,0.945-1.422c0.473-0.473,0.473-0.473,0.945-0.945s0.473-0.945,0.945-1.422
		c0.473-0.473,0.945-0.945,0.945-1.422c0.473-0.473,0.473-0.473,0.945-0.945s1.422-1.422,2.367-1.895
		c11.84-10.891,27.469-16.574,43.57-16.574h27.469l0.02,298.82L304.02,525.66z M374.586,372.22h-10.418
		c-6.156,0-10.891-5.21-10.891-11.84v-26.047c0-6.156,4.734-10.891,10.891-10.891h10.418V372.22z M402.051,360.857
		c0,6.156-5.211,11.84-11.367,11.84h-10.891v-49.254h10.891c6.156,0,11.367,4.734,11.367,10.891V360.857z M536.551,427.63v35.992
		c0,16.102-6.156,32.203-17.051,43.57c-4.262,4.734-8.996,8.523-14.207,11.366c-0.945,0.473-1.422,0.945-2.367,1.422
		c-0.945,0.473-1.422,0.945-2.367,0.945h-0.473c-0.945,0.473-1.422,0.473-2.367,0.945h-0.473c-0.945,0.473-1.422,0.473-2.367,0.945
		h-0.473c-0.473,0-1.422,0.473-1.895,0.473h-0.945c-0.473,0-1.422,0.473-1.895,0.473h-0.945c-0.473,0-1.422,0-1.895,0.473h-1.422
		h-1.422h-1.895h-0.945h-2.84l-31.266,0.004v-297.88h31.729c16.103,0,30.781,5.684,41.677,16.574
		c10.891,10.418,16.573,25.102,16.573,41.203v143.49L536.551,427.63z"/>
	<path d="M250.98,385.471c0,6.801-5.512,12.312-12.312,12.312c-6.801,0-12.312-5.512-12.312-12.312
		c0-6.802,5.512-12.312,12.312-12.312C245.469,373.158,250.98,378.67,250.98,385.471"/>
	<path d="M299.75,385.471c0,6.801-5.512,12.312-12.312,12.312c-6.801,0-12.312-5.512-12.312-12.312
		c0-6.802,5.512-12.312,12.312-12.312C294.239,373.158,299.75,378.67,299.75,385.471"/>
	<path d="M275.6,361.32c0,6.801-5.512,12.312-12.312,12.312c-6.801,0-12.312-5.512-12.312-12.312
		c0-6.801,5.512-12.312,12.312-12.312C270.089,349.008,275.6,354.52,275.6,361.32"/>
	<path d="M289.34,298.81c0,14.383-11.66,26.047-26.047,26.047c-14.387,0-26.047-11.664-26.047-26.047
		c0-14.387,11.66-26.047,26.047-26.047C277.68,272.763,289.34,284.423,289.34,298.81"/>
	<path d="M275.6,410.1c0,6.801-5.512,12.316-12.312,12.316c-6.801,0-12.312-5.516-12.312-12.316c0-6.797,5.512-12.312,12.312-12.312
		C270.089,397.788,275.6,403.304,275.6,410.1"/>
	<path d="M270.87,434.25h18.941v18.941H270.87V434.25z"/>
	<path d="M526.6,296.91c0,6.801-5.516,12.312-12.315,12.312c-6.797,0-12.312-5.512-12.312-12.312
		c0-6.801,5.516-12.312,12.312-12.312C521.085,284.598,526.6,290.11,526.6,296.91"/>
	<path d="M477.82,296.91c0,6.801-5.512,12.312-12.312,12.312s-12.312-5.512-12.312-12.312c0-6.801,5.512-12.312,12.312-12.312
		C472.309,284.598,477.82,290.11,477.82,296.91"/>
	<path d="M502.45,272.29c0,6.797-5.516,12.312-12.316,12.312c-6.797,0-12.312-5.516-12.312-12.312
		c0-6.801,5.516-12.316,12.312-12.316C496.935,259.974,502.45,265.49,502.45,272.29"/>
	<path d="M516.18,386.42c0,14.383-11.66,26.047-26.047,26.047c-14.383,0-26.047-11.664-26.047-26.047
		c0-14.387,11.664-26.047,26.047-26.047C504.52,360.373,516.18,372.033,516.18,386.42"/>
	<path d="M502.45,321.07c0,6.801-5.516,12.312-12.316,12.312c-6.797,0-12.312-5.512-12.312-12.312
		c0-6.801,5.516-12.312,12.312-12.312C496.935,308.758,502.45,314.27,502.45,321.07"/>
	<path d="M486.35,443.25c0,7.062-5.727,12.785-12.789,12.785c-7.062,0-12.784-5.723-12.784-12.785s5.723-12.785,12.784-12.785
		C480.623,430.465,486.35,436.188,486.35,443.25"/>
</g>
</svg>
