<?xml version="1.0" standalone="no"?>
<!DOCTYPE svg PUBLIC "-//W3C//DTD SVG 20010904//EN"
 "http://www.w3.org/TR/2001/REC-SVG-20010904/DTD/svg10.dtd">
<svg version="1.0" xmlns="http://www.w3.org/2000/svg"
 width="473.000000pt" height="473.000000pt" viewBox="0 0 473.000000 473.000000"
 preserveAspectRatio="xMidYMid meet">

<g transform="translate(0.000000,473.000000) scale(0.100000,-0.100000)"
fill="#000000" stroke="none">
<path d="M1442 4707 c-50 -19 -102 -65 -123 -111 -17 -37 -19 -69 -19 -333 l0
-293 -137 0 c-76 -1 -172 -7 -214 -14 -287 -52 -522 -273 -597 -564 -16 -62
-17 -158 -17 -1192 0 -1069 1 -1129 19 -1195 51 -192 164 -350 321 -451 105
-66 213 -104 347 -119 l58 -6 2 -212 3 -212 1283 -3 1282 -2 0 214 0 213 91
12 c266 34 484 194 594 434 68 150 65 83 65 1329 0 1078 -1 1128 -19 1200 -54
210 -202 393 -395 487 -124 61 -178 72 -373 78 l-173 6 0 286 0 287 -27 55
c-21 40 -40 61 -77 84 l-49 30 -906 2 c-681 1 -914 -1 -939 -10z m1788 -472
l0 -265 -860 0 -860 0 0 265 0 265 860 0 860 0 0 -265z m559 -500 c187 -49
341 -208 386 -396 22 -95 22 -2182 0 -2277 -35 -149 -141 -283 -276 -351 -43
-22 -102 -44 -131 -50 -37 -8 -458 -11 -1428 -9 l-1375 3 -58 22 c-153 58
-272 177 -330 328 l-22 60 -3 1105 c-2 807 0 1120 8 1160 40 190 195 354 381
404 80 22 2767 23 2848 1z m-349 -3410 l0 -105 -1070 0 -1070 0 0 105 0 105
1070 0 1070 0 0 -105z"/>
<path d="M1634 2661 c-68 -31 -124 -117 -124 -192 0 -92 78 -188 168 -208 200
-42 343 194 209 346 -61 70 -168 93 -253 54z"/>
<path d="M2925 2664 c-87 -47 -129 -119 -123 -210 14 -220 302 -274 403 -74
44 86 8 211 -77 267 -51 35 -155 43 -203 17z"/>
<path d="M1710 1707 c-34 -17 -63 -79 -55 -117 17 -78 241 -211 453 -267 86
-24 115 -27 262 -26 145 0 177 3 262 26 157 42 374 156 429 225 29 38 25 95
-10 134 -25 28 -36 33 -73 33 -35 0 -55 -9 -108 -46 -311 -222 -715 -217
-1021 12 -56 42 -94 49 -139 26z"/>
</g>
</svg>
