<?xml version="1.0" encoding="utf-8"?>
<!-- Generator: Adobe Illustrator 19.0.0, SVG Export Plug-In . SVG Version: 6.00 Build 0)  -->
<svg version="1.1" id="Layer_1" xmlns="http://www.w3.org/2000/svg" xmlns:xlink="http://www.w3.org/1999/xlink" x="0px" y="0px"
	 viewBox="0 0 858.2 268.7" style="enable-background:new 0 0 858.2 268.7;" xml:space="preserve">
<style type="text/css">
	.st0{fill:none;}
</style>
<g id="XMLID_2_">
	<rect id="XMLID_67_" y="4.4" class="st0" width="858.2" height="264.3"/>
	<path id="XMLID_56_" d="M125.9,4.4v48.4H89V206H38.9V52.8H2V4.4H125.9z"/>
	<path id="XMLID_58_" d="M233.3,145.5c0-15.6-2.6-29.7-16.4-37.2c-4.6-2.6-10.1-3.7-15.6-3.7c-5.8,0-11.2,1.4-16.1,4.3
		c-9.2,5.2-15.6,15.6-15.6,27.1c0,9.2,4.6,19.9,15.6,25.9c4.9,2.9,10.7,4.3,16.1,4.3c5.8,0,13.2-1.4,19.9-3.5V204
		c-8.9,2.9-15.8,4.9-25.6,4.9c-35.4,0-72-25.1-72-70.6c0-29.4,16.7-56.2,41.5-68.3c11.5-5.8,24.8-8.1,37.7-8.1
		c10.1,0,20.2,1.2,29.7,4.6c24.8,8.9,46.9,33.1,46.9,74.6V206h-46.1V145.5z"/>
	<path id="XMLID_60_" d="M325.7,218.4c17.3,4.6,26.8,7.8,44.1,7.8c34.6,0,33.4-17.6,33.4-35.7v-46.4c0-32-17.3-39.5-29.7-39.5
		c-16.1,0-29.1,13-29.1,29.7c0,16.1,13,29.1,29.1,29.1c5.8,0,12.7-1.7,17.6-4V202c-6.6,3.2-12.7,4-22.2,4c-12.4,0-25.1-2.3-35.7-8.4
		c-18.1-10.1-34.8-33.7-34.8-63.4c0-25.9,12.7-48.4,31.1-60.5C342.1,65.5,357.7,62,373,62c14.4,0,28.5,2.9,40.6,9.8
		c31.4,18.1,35.7,49.8,35.7,70.8v48.1c0,25.1-4.3,46.4-24.5,62.5c-16.1,13-34.3,15-49.8,15c-19.9,0-26.2-1.7-49.2-6.6V218.4z"/>
	<path id="XMLID_62_" d="M466,206l16.4-158.1c1.4-15,2.9-46.4,37.2-46.4c31.4,0,37.2,26.2,39.5,42.3l13.8,93.3h0.9l14.1-93.3
		c2.6-17,8.6-42.3,38.3-42.3c34,0,36.6,28.5,38.3,46.4L680.8,206H633l-8.9-159.5l-24.5,131.6c-5.2,27.9-17.6,30.8-25.9,30.8
		c-8.9,0-21.3-3.2-26.5-30.8L522.7,46.5L513.8,206H466z"/>
	<path id="XMLID_64_" d="M847.9,135.5c0,40.9-34.3,73.4-76.9,73.4s-76.9-32.5-76.9-73.4S728.3,62,771,62S847.9,94.6,847.9,135.5z
		 M771,166.3c16.7,0,30.8-14.1,30.8-30.8s-14.1-30.8-30.8-30.8c-16.7,0-30.8,14.1-30.8,30.8S754.3,166.3,771,166.3z"/>
</g>
<g id="XMLID_1_">
</g>
<g id="XMLID_55_">
</g>
<g id="XMLID_68_">
</g>
<g id="XMLID_69_">
</g>
<g id="XMLID_70_">
</g>
<g id="XMLID_71_">
</g>
<g id="XMLID_72_">
</g>
<g id="XMLID_73_">
</g>
<g id="XMLID_74_">
</g>
<g id="XMLID_75_">
</g>
<g id="XMLID_76_">
</g>
<g id="XMLID_77_">
</g>
<g id="XMLID_78_">
</g>
<g id="XMLID_79_">
</g>
<g id="XMLID_80_">
</g>
</svg>
