<?xml version="1.0" standalone="no"?>
<!DOCTYPE svg PUBLIC "-//W3C//DTD SVG 20010904//EN"
 "http://www.w3.org/TR/2001/REC-SVG-20010904/DTD/svg10.dtd">
<svg version="1.0" xmlns="http://www.w3.org/2000/svg"
 width="512.000000pt" height="512.000000pt" viewBox="0 0 512.000000 512.000000"
 preserveAspectRatio="xMidYMid meet">

<g transform="translate(0.000000,512.000000) scale(0.100000,-0.100000)"
fill="#000000" stroke="none">
<path d="M927 3709 c-95 -22 -173 -87 -215 -178 -21 -45 -26 -71 -26 -131 1
-98 29 -165 95 -224 62 -56 121 -76 219 -76 66 0 86 4 138 31 108 53 162 143
162 270 0 95 -20 155 -72 214 -47 53 -91 78 -166 94 -60 13 -82 13 -135 0z"/>
<path d="M4001 3705 c-145 -40 -232 -153 -232 -300 0 -132 65 -241 177 -296
41 -20 64 -24 144 -24 113 0 163 20 235 92 62 64 88 135 83 233 -4 92 -30 151
-95 215 -77 76 -206 109 -312 80z"/>
<path d="M3202 3350 c-42 -26 -57 -63 -43 -110 5 -19 30 -92 55 -162 68 -191
90 -318 90 -518 0 -207 -16 -296 -96 -534 -64 -192 -66 -210 -21 -252 34 -31
90 -32 128 -2 51 40 124 237 167 448 20 100 23 144 23 340 -1 207 -3 235 -28
355 -46 216 -119 404 -169 439 -30 21 -66 20 -106 -4z"/>
<path d="M2814 3166 c-19 -19 -34 -44 -34 -56 0 -12 20 -76 44 -144 65 -179
79 -268 73 -456 -6 -169 -18 -228 -81 -389 -42 -108 -43 -115 -16 -158 26 -44
84 -62 128 -39 114 59 208 484 173 782 -22 191 -83 385 -143 458 -25 30 -36
36 -70 36 -32 0 -47 -7 -74 -34z"/>
<path d="M2408 3010 c-45 -35 -46 -75 -4 -200 45 -136 57 -220 45 -304 -10
-74 -17 -96 -31 -96 -6 0 -155 113 -331 250 -350 273 -354 275 -401 219 -47
-55 -61 -126 -61 -304 0 -138 3 -170 23 -232 33 -107 92 -163 148 -142 56 20
67 93 37 249 -17 90 -14 120 11 120 8 0 139 -95 292 -212 153 -116 290 -217
304 -225 97 -50 172 53 210 290 50 307 -110 692 -242 587z"/>
<path d="M694 2926 c-85 -21 -168 -86 -208 -164 -37 -73 -36 -205 3 -286 53
-108 149 -169 276 -174 107 -5 174 20 244 89 164 165 100 447 -119 524 -59 21
-140 25 -196 11z"/>
<path d="M4261 2925 c-145 -40 -232 -153 -232 -300 0 -173 104 -291 271 -311
96 -11 217 31 277 97 109 121 102 337 -15 445 -71 66 -203 96 -301 69z"/>
<path d="M921 2145 c-145 -40 -232 -153 -232 -300 0 -132 65 -241 177 -296 41
-20 64 -24 144 -24 113 0 163 20 235 92 62 64 88 135 83 233 -4 92 -30 151
-95 215 -77 76 -206 109 -312 80z"/>
<path d="M4001 2145 c-145 -40 -232 -153 -232 -300 0 -132 65 -241 177 -296
41 -20 64 -24 144 -24 113 0 163 20 235 92 62 64 88 135 83 233 -4 92 -30 151
-95 215 -77 76 -206 109 -312 80z"/>
</g>
</svg>
